<svg xmlns="http://www.w3.org/2000/svg" id="Layer_1" data-name="Layer 1" viewBox="70.15 78.59 320.8 320.8" width="100%" height="100%">
  <defs>
    <style>
      .cls-1 {
        fill: #b0c4ef;
      }

      .cls-2 {
        fill: #fff;
      }
    </style>
  </defs>
  <path d="M350.85,78.59H110.25c-22.14,0-40.1,17.96-40.1,40.1v240.6c0,22.14,17.96,40.1,40.1,40.1h240.6c22.14,0,40.1-17.96,40.1-40.1V118.69c0-22.14-17.96-40.1-40.1-40.1ZM238.57,94.63h60.15v60.15h-60.15v-60.15ZM86.19,118.69c0-13.25,10.81-24.06,24.06-24.06h112.28v60.15H86.19v-36.09ZM86.19,170.82h212.53v60.15H86.19v-60.15ZM222.53,247.01v60.15h-60.15v-60.15h60.15ZM146.34,383.35h-36.09c-13.25,0-24.06-10.8-24.06-24.06v-36.09h60.15v60.15ZM146.34,307.16h-60.15v-60.15h60.15v60.15ZM374.91,359.29c0,13.26-10.8,24.06-24.06,24.06h-188.47v-60.15h212.53v36.09ZM374.91,307.16h-136.34v-60.15h136.34v60.15ZM374.91,230.97h-60.15v-60.15h60.15v60.15ZM374.91,154.78h-60.15v-60.15h36.09c13.26,0,24.06,10.81,24.06,24.06v36.09Z"/>
  <path class="cls-2" d="M146.34,323.2v60.15h-36.09c-13.25,0-24.06-10.8-24.06-24.06v-36.09h60.15Z"/>
  <path class="cls-2" d="M222.53,247.01h-60.15v60.15h60.15v-60.15Z"/>
  <path class="cls-2" d="M374.91,170.82h-60.15v60.15h60.15v-60.15Z"/>
  <path class="cls-2" d="M298.72,94.63h-60.15v60.15h60.15v-60.15Z"/>
  <path class="cls-1" d="M374.91,118.69v36.09h-60.15v-60.15h36.09c13.26,0,24.06,10.81,24.06,24.06Z"/>
  <path class="cls-1" d="M146.34,247.01h-60.15v60.15h60.15v-60.15Z"/>
  <path class="cls-1" d="M374.91,323.2v36.09c0,13.26-10.81,24.06-24.06,24.06h-188.47v-60.15h212.53Z"/>
  <path class="cls-1" d="M374.91,247.01h-136.34v60.15h136.34v-60.15Z"/>
  <path class="cls-1" d="M298.72,170.82H86.19v60.15h212.53v-60.15Z"/>
  <path class="cls-1" d="M222.53,94.63v60.15H86.19v-36.09c0-13.25,10.81-24.06,24.06-24.06h112.28Z"/>
</svg>